<svg xmlns="http://www.w3.org/2000/svg" viewBox="0 0 512 512">
  <!-- Pro Design 2: Isometric Cube Stack - Environment layers -->
  <!-- Based on: Flat Design, geometric shapes -->

  <!-- Background -->
  <rect width="512" height="512" fill="#0F172A" rx="80"/>

  <!-- Bottom cube (Production - Green) -->
  <polygon points="256,380 156,320 256,260 356,320" fill="#22C55E"/>
  <polygon points="156,320 156,380 256,440 256,380" fill="#16A34A"/>
  <polygon points="356,320 356,380 256,440 256,380" fill="#15803D"/>

  <!-- Middle cube (Stage - Blue) -->
  <polygon points="256,280 156,220 256,160 356,220" fill="#3B82F6"/>
  <polygon points="156,220 156,280 256,340 256,280" fill="#2563EB"/>
  <polygon points="356,220 356,280 256,340 256,280" fill="#1D4ED8"/>

  <!-- Top cube (Dev - Orange) -->
  <polygon points="256,180 156,120 256,60 356,120" fill="#F97316"/>
  <polygon points="156,120 156,180 256,240 256,180" fill="#EA580C"/>
  <polygon points="356,120 356,180 256,240 256,180" fill="#C2410C"/>
</svg>
